<svg xmlns="http://www.w3.org/2000/svg" width="50" height="169"><symbol fill="currentColor" id="camera" viewBox="0 0 50 38"><path fill-rule="evenodd" clip-rule="evenodd" d="M32.764 0a2 2 0 011.789 1.106l1.894 3.788A2 2 0 0038.237 6H48a2 2 0 012 2v28a2 2 0 01-2 2H2a2 2 0 01-2-2V8a2 2 0 012-2h9.764a2 2 0 001.789-1.106l1.894-3.788A2 2 0 0117.237 0h15.527zM25 11c-6.075 0-11 4.925-11 11s4.925 11 11 11 11-4.925 11-11-4.925-11-11-11zm0 3a8 8 0 110 16 8 8 0 010-16zm19.5-5a2.5 2.5 0 110 5 2.5 2.5 0 010-5z"/></symbol><symbol fill="none" id="double-hearts" viewBox="0 0 35 35"><path fill-rule="evenodd" clip-rule="evenodd" d="M33.421 1.6a5.34 5.34 0 00-7.623 0L24.5 2.918 23.203 1.6a5.34 5.34 0 00-7.624 0c-2.105 2.134-2.105 5.594 0 7.73l8.92 9.044 8.922-9.044c2.105-2.136 2.105-5.596 0-7.73m-14 16a5.34 5.34 0 00-7.623 0L10.5 18.918 9.202 17.6a5.34 5.34 0 00-7.623 0c-2.105 2.134-2.105 5.594 0 7.73l8.92 9.044 8.922-9.044c2.105-2.136 2.105-5.596 0-7.73" fill="currentColor"/></symbol><symbol fill="currentColor" id="heart" viewBox="0 0 32 28"><path fill-rule="evenodd" clip-rule="evenodd" d="M29.594 2.44a8.136 8.136 0 00-11.617 0L16 4.444 14.023 2.44a8.136 8.136 0 00-11.617 0c-3.208 3.252-3.208 8.524 0 11.778L16 28l13.594-13.782c3.208-3.254 3.208-8.526 0-11.778z"/></symbol><symbol fill="none" id="left-arrow" viewBox="0 0 19 28"><path fill-rule="evenodd" clip-rule="evenodd" d="M.952 15.562a2 2 0 010-3.124L15.751.6C17.06-.448 19 .484 19 2.16v23.68c0 1.677-1.94 2.61-3.25 1.562L.953 15.56z" fill="#000"/></symbol><symbol fill="none" id="right-arrow" viewBox="0 0 19 28"><path fill-rule="evenodd" clip-rule="evenodd" d="M18.048 12.438a2 2 0 010 3.124L3.249 27.4C1.94 28.448 0 27.515 0 25.838V2.16C0 .484 1.94-.449 3.25.6l14.798 11.838z" fill="#000"/></symbol><symbol id="social-instagram" viewBox="0 0 12 12"><path fill-rule="evenodd" d="M5.885 0l1.516.006.376.008c.17.005.324.012.522.02a4.3 4.3 0 011.422.274c.793.302 1.42.928 1.722 1.722.136.364.223.744.257 1.13l.036.73.01.459.004.68-.004 2.2-.007.391a18.62 18.62 0 01-.016.482l-.007.176c-.01.486-.103.967-.273 1.422a2.976 2.976 0 01-1.722 1.722 4.311 4.311 0 01-1.131.257l-.73.037-.459.01a71.77 71.77 0 01-.68.003l-2.2-.004-.391-.006c-.171-.004-.316-.01-.482-.016l-.176-.008a4.309 4.309 0 01-1.422-.273A2.977 2.977 0 01.328 9.7a4.305 4.305 0 01-.295-1.4l-.025-.59L0 7.107l.004-2.671.008-.41c.005-.182.012-.344.021-.552.01-.486.102-.967.273-1.423A2.977 2.977 0 012.028.33 4.3 4.3 0 013.159.072l.663-.034.661-.014 1.38-.002L5.885 0zm-.022 1.068v.01l-1.257.002-.512.008-.597.024c-.372.003-.74.071-1.088.202a1.94 1.94 0 00-1.097 1.097c-.104.278-.168.57-.192.865l-.035.804-.008.75.003 2.403.012.574.019.424c.003.372.071.74.201 1.088.195.507.592.91 1.097 1.112.279.104.57.168.865.192l.626.03c.18.006.363.01.624.012l2.688-.002.587-.012.43-.019c.372-.003.74-.071 1.088-.201.51-.198.912-.6 1.11-1.11.104-.278.169-.57.192-.865l.035-.803.007-.589-.002-2.497-.007-.452a18.837 18.837 0 00-.007-.246l-.016-.368a3.175 3.175 0 00-.202-1.088 1.95 1.95 0 00-1.11-1.11 3.178 3.178 0 00-.865-.191l-.69-.032-.512-.01-1.387-.002zm0 1.79a3.006 3.006 0 110 6.013 3.006 3.006 0 010-6.012zm0 1.056a1.95 1.95 0 100 3.901 1.95 1.95 0 000-3.901zm3.125-1.877a.704.704 0 110 1.407.704.704 0 010-1.407z" clip-rule="evenodd"/></symbol></svg>